<?xml version="1.0" encoding="UTF-8" standalone="no"?>
<svg width="414px" height="102px" viewBox="0 0 414 102" version="1.1" xmlns="http://www.w3.org/2000/svg" xmlns:xlink="http://www.w3.org/1999/xlink" xmlns:sketch="http://www.bohemiancoding.com/sketch/ns">
    <!-- Generator: Sketch 3.5.2 (25235) - http://www.bohemiancoding.com/sketch -->
    <title>gda-logonegative</title>
    <desc>Created with Sketch.</desc>
    <defs></defs>
    <g id="Page-1" stroke="none" stroke-width="1" fill="none" fill-rule="evenodd" sketch:type="MSPage">
        <g id="gda-logonegative" sketch:type="MSLayerGroup">
            <path d="M134.6,44.9 C133.2,44.9 131.9,44.7 130.7,44.2 C129.5,43.7 128.5,43.1 127.6,42.3 C126.7,41.5 126,40.5 125.5,39.4 C125,38.3 124.8,37 124.8,35.6 L124.8,35.5 C124.8,34.2 125,33 125.5,31.8 C126,30.7 126.7,29.7 127.5,28.8 C128.4,28 129.4,27.3 130.6,26.8 C131.8,26.3 133.1,26.1 134.5,26.1 C136.1,26.1 137.5,26.3 138.6,26.8 C139.7,27.3 140.8,27.9 141.8,28.7 L138.9,32.2 C138.2,31.7 137.6,31.2 136.9,30.9 C136.2,30.6 135.4,30.5 134.5,30.5 C133.8,30.5 133.2,30.6 132.7,30.9 C132.1,31.2 131.7,31.5 131.2,32 C130.8,32.4 130.5,33 130.2,33.6 C130,34.2 129.8,34.8 129.8,35.5 L129.8,35.6 C129.8,36.3 129.9,37 130.2,37.6 C130.4,38.2 130.8,38.7 131.2,39.2 C131.6,39.6 132.2,40 132.7,40.2 C133.3,40.4 134,40.6 134.7,40.6 C135.9,40.6 136.8,40.4 137.6,39.9 L137.6,37.7 L134,37.7 L134,34 L142.3,34 L142.3,42.1 C141.3,42.9 140.2,43.5 138.9,44.1 C137.7,44.6 136.3,44.9 134.6,44.9 L134.6,44.9 Z" id="Shape" fill="#FFFFFF" sketch:type="MSShapeGroup"></path>
            <path d="M159.4,44.9 C158,44.9 156.7,44.7 155.5,44.2 C154.3,43.7 153.3,43 152.4,42.2 C151.5,41.4 150.9,40.4 150.4,39.2 C149.9,38.1 149.7,36.9 149.7,35.6 L149.7,35.5 C149.7,34.2 149.9,33 150.4,31.9 C150.9,30.8 151.6,29.8 152.4,28.9 C153.3,28.1 154.3,27.4 155.5,26.9 C156.7,26.4 158,26.2 159.4,26.2 C160.8,26.2 162.1,26.4 163.3,26.9 C164.5,27.4 165.5,28.1 166.4,28.9 C167.3,29.7 167.9,30.7 168.4,31.9 C168.9,33 169.1,34.2 169.1,35.5 L169.1,35.6 C169.1,36.9 168.9,38.1 168.4,39.2 C167.9,40.3 167.2,41.3 166.4,42.2 C165.5,43 164.5,43.7 163.3,44.2 C162.1,44.7 160.8,44.9 159.4,44.9 L159.4,44.9 Z M159.5,40.4 C160.2,40.4 160.8,40.3 161.4,40 C162,39.7 162.4,39.4 162.8,39 C163.2,38.6 163.5,38.1 163.7,37.5 C163.9,36.9 164,36.3 164,35.6 L164,35.5 C164,34.8 163.9,34.2 163.7,33.6 C163.5,33 163.2,32.5 162.7,32.1 C162.3,31.7 161.8,31.3 161.2,31 C160.6,30.7 160,30.6 159.3,30.6 C158.6,30.6 158,30.7 157.4,31 C156.8,31.3 156.4,31.6 156,32 C155.6,32.4 155.3,32.9 155.1,33.5 C154.9,34.1 154.8,34.7 154.8,35.4 L154.8,35.5 C154.8,36.2 154.9,36.8 155.1,37.4 C155.3,38 155.6,38.5 156,38.9 C156.4,39.3 156.9,39.7 157.5,40 C158.1,40.3 158.8,40.4 159.5,40.4 L159.5,40.4 Z" id="Shape" fill="#FFFFFF" sketch:type="MSShapeGroup"></path>
            <path d="M175.5,26.5 L181.1,26.5 L185.2,37.9 L189.3,26.5 L194.8,26.5 L187.5,44.6 L182.9,44.6 L175.5,26.5 L175.5,26.5 Z" id="Shape" fill="#FFFFFF" sketch:type="MSShapeGroup"></path>
            <path d="M201.6,26.5 L216.1,26.5 L216.1,30.7 L206.6,30.7 L206.6,33.4 L215.2,33.4 L215.2,37.3 L206.6,37.3 L206.6,40.2 L216.3,40.2 L216.3,44.4 L201.7,44.4 L201.7,26.5 L201.6,26.5 Z" id="Shape" fill="#FFFFFF" sketch:type="MSShapeGroup"></path>
            <path d="M223.9,26.5 L232.4,26.5 C233.8,26.5 235,26.7 235.9,27 C236.9,27.3 237.6,27.8 238.2,28.4 C239.3,29.4 239.8,30.8 239.8,32.6 L239.8,32.7 C239.8,34.1 239.5,35.2 238.8,36.1 C238.1,37 237.2,37.7 236.1,38.2 L240.4,44.5 L234.6,44.5 L231,39 L231,39 L228.9,39 L228.9,44.5 L223.9,44.5 L223.9,26.5 L223.9,26.5 Z M232.2,35.2 C233.1,35.2 233.7,35 234.2,34.6 C234.7,34.2 234.9,33.7 234.9,33 L234.9,33 C234.9,32.3 234.7,31.7 234.2,31.4 C233.7,31 233.1,30.9 232.2,30.9 L228.9,30.9 L228.9,35.2 L232.2,35.2 L232.2,35.2 Z" id="Shape" fill="#FFFFFF" sketch:type="MSShapeGroup"></path>
            <path d="M247.6,26.5 L252.3,26.5 L259.7,36 L259.7,26.5 L264.6,26.5 L264.6,44.5 L260.2,44.5 L252.5,34.6 L252.5,44.5 L247.6,44.5 L247.6,26.5 L247.6,26.5 Z" id="Shape" fill="#FFFFFF" sketch:type="MSShapeGroup"></path>
            <path d="M279.1,26.4 L283.9,26.4 L291.6,44.5 L286.2,44.5 L284.9,41.3 L278,41.3 L276.7,44.5 L271.5,44.5 L279.1,26.4 L279.1,26.4 Z M283.5,37.5 L281.5,32.4 L279.5,37.5 L283.5,37.5 L283.5,37.5 Z" id="Shape" fill="#FFFFFF" sketch:type="MSShapeGroup"></path>
            <path d="M298.5,26.5 L303.2,26.5 L310.6,36 L310.6,26.5 L315.5,26.5 L315.5,44.5 L311.1,44.5 L303.4,34.6 L303.4,44.5 L298.5,44.5 L298.5,26.5 L298.5,26.5 Z" id="Shape" fill="#FFFFFF" sketch:type="MSShapeGroup"></path>
            <path d="M332.5,44.9 C331.2,44.9 330,44.7 328.9,44.2 C327.8,43.7 326.8,43.1 326,42.3 C325.2,41.5 324.5,40.5 324,39.3 C323.5,38.2 323.3,36.9 323.3,35.6 L323.3,35.5 C323.3,34.2 323.5,33 324,31.8 C324.5,30.7 325.1,29.7 326,28.8 C326.8,28 327.8,27.3 329,26.8 C330.2,26.3 331.4,26.1 332.8,26.1 C333.7,26.1 334.6,26.2 335.3,26.4 C336.1,26.6 336.7,26.8 337.4,27.2 C338,27.5 338.6,27.9 339.1,28.4 C339.6,28.9 340.1,29.4 340.5,29.9 L336.7,32.8 C336.2,32.1 335.6,31.6 335,31.3 C334.4,30.9 333.6,30.7 332.8,30.7 C332.2,30.7 331.6,30.8 331.1,31.1 C330.6,31.3 330.1,31.7 329.7,32.1 C329.3,32.5 329,33 328.8,33.6 C328.6,34.2 328.5,34.8 328.5,35.5 L328.5,35.6 C328.5,36.3 328.6,36.9 328.8,37.5 C329,38.1 329.3,38.6 329.7,39 C330.1,39.4 330.5,39.8 331.1,40 C331.6,40.2 332.2,40.4 332.8,40.4 C333.3,40.4 333.7,40.3 334.1,40.2 C334.5,40.1 334.8,39.9 335.2,39.7 C335.5,39.5 335.8,39.3 336.1,39 C336.4,38.7 336.7,38.4 336.9,38.1 L340.7,40.8 C340.3,41.4 339.8,41.9 339.3,42.4 C338.8,42.9 338.2,43.3 337.6,43.7 C337,44.1 336.2,44.3 335.4,44.5 C334.4,44.8 333.5,44.9 332.5,44.9 L332.5,44.9 Z" id="Shape" fill="#FFFFFF" sketch:type="MSShapeGroup"></path>
            <path d="M347.8,26.5 L362.3,26.5 L362.3,30.7 L352.8,30.7 L352.8,33.4 L361.4,33.4 L361.4,37.3 L352.8,37.3 L352.8,40.2 L362.5,40.2 L362.5,44.4 L347.9,44.4 L347.9,26.5 L347.8,26.5 Z" id="Shape" fill="#FFFFFF" sketch:type="MSShapeGroup"></path>
            <path d="M125.4,58.3 L132.3,58.3 C133.9,58.3 135.3,58.5 136.6,59 C137.9,59.4 138.9,60.1 139.8,60.8 C140.7,61.6 141.3,62.5 141.8,63.6 C142.3,64.7 142.5,65.9 142.5,67.2 L142.5,67.3 C142.5,68.6 142.3,69.8 141.8,70.9 C141.3,72 140.7,73 139.8,73.8 C138.9,74.6 137.8,75.2 136.6,75.7 C135.3,76.2 133.9,76.4 132.3,76.4 L125.5,76.4 L125.5,58.3 L125.4,58.3 Z M132.5,71.9 C134,71.9 135.2,71.5 136.1,70.7 C137,69.9 137.5,68.8 137.5,67.3 L137.5,67.2 C137.5,65.8 137,64.6 136.1,63.8 C135.2,63 134,62.6 132.5,62.6 L130.5,62.6 L130.5,71.8 L132.5,71.8 L132.5,71.9 Z" id="Shape" fill="#FFFFFF" sketch:type="MSShapeGroup"></path>
            <path d="M156.5,58.1 L161.3,58.1 L169,76.2 L163.6,76.2 L162.3,73 L155.4,73 L154.1,76.2 L148.9,76.2 L156.5,58.1 L156.5,58.1 Z M160.9,69.2 L158.9,64.1 L156.9,69.2 L160.9,69.2 L160.9,69.2 Z" id="Shape" fill="#FFFFFF" sketch:type="MSShapeGroup"></path>
            <path d="M180.3,62.6 L174.9,62.6 L174.9,58.2 L190.7,58.2 L190.7,62.6 L185.3,62.6 L185.3,76.2 L180.3,76.2 L180.3,62.6 L180.3,62.6 Z" id="Shape" fill="#FFFFFF" sketch:type="MSShapeGroup"></path>
            <path d="M204.2,58.1 L209,58.1 L216.7,76.2 L211.3,76.2 L210,73 L203.1,73 L201.8,76.2 L196.6,76.2 L204.2,58.1 L204.2,58.1 Z M208.6,69.2 L206.6,64.1 L204.6,69.2 L208.6,69.2 L208.6,69.2 Z" id="Shape" fill="#FFFFFF" sketch:type="MSShapeGroup"></path>
            <path d="M249.1,58.1 L253.9,58.1 L261.6,76.2 L256.2,76.2 L254.9,73 L248,73 L246.7,76.2 L241.5,76.2 L249.1,58.1 L249.1,58.1 Z M253.4,69.2 L251.4,64.1 L249.4,69.2 L253.4,69.2 L253.4,69.2 Z" id="Shape" fill="#FFFFFF" sketch:type="MSShapeGroup"></path>
            <path d="M268.4,58.3 L273.4,58.3 L273.4,71.9 L282.1,71.9 L282.1,76.3 L268.4,76.3 L268.4,58.3 L268.4,58.3 Z" id="Shape" fill="#FFFFFF" sketch:type="MSShapeGroup"></path>
            <path d="M289.4,58.3 L294.4,58.3 L294.4,71.9 L303.1,71.9 L303.1,76.3 L289.4,76.3 L289.4,58.3 L289.4,58.3 Z" id="Shape" fill="#FFFFFF" sketch:type="MSShapeGroup"></path>
            <path d="M310.5,58.3 L315.5,58.3 L315.5,76.3 L310.5,76.3 L310.5,58.3 L310.5,58.3 Z" id="Shape" fill="#FFFFFF" sketch:type="MSShapeGroup"></path>
            <path d="M330.2,58.1 L335,58.1 L342.7,76.2 L337.3,76.2 L336,73 L329.1,73 L327.8,76.2 L322.6,76.2 L330.2,58.1 L330.2,58.1 Z M334.6,69.2 L332.6,64.1 L330.6,69.2 L334.6,69.2 L334.6,69.2 Z" id="Shape" fill="#FFFFFF" sketch:type="MSShapeGroup"></path>
            <path d="M349.6,58.3 L354.3,58.3 L361.7,67.8 L361.7,58.3 L366.6,58.3 L366.6,76.3 L362.2,76.3 L354.5,66.4 L354.5,76.3 L349.6,76.3 L349.6,58.3 L349.6,58.3 Z" id="Shape" fill="#FFFFFF" sketch:type="MSShapeGroup"></path>
            <path d="M383.6,76.6 C382.3,76.6 381.1,76.4 380,75.9 C378.9,75.4 377.9,74.8 377.1,74 C376.3,73.2 375.6,72.2 375.1,71 C374.6,69.9 374.4,68.6 374.4,67.3 L374.4,67.2 C374.4,65.9 374.6,64.7 375.1,63.5 C375.6,62.4 376.2,61.4 377.1,60.5 C377.9,59.7 378.9,59 380.1,58.5 C381.3,58 382.5,57.8 383.9,57.8 C384.8,57.8 385.7,57.9 386.4,58.1 C387.2,58.3 387.8,58.5 388.5,58.9 C389.1,59.2 389.7,59.6 390.2,60.1 C390.7,60.6 391.2,61.1 391.6,61.6 L387.8,64.5 C387.3,63.8 386.7,63.3 386.1,63 C385.5,62.6 384.7,62.4 383.9,62.4 C383.3,62.4 382.7,62.5 382.2,62.8 C381.7,63 381.2,63.4 380.8,63.8 C380.4,64.2 380.1,64.7 379.9,65.3 C379.7,65.9 379.6,66.5 379.6,67.2 L379.6,67.3 C379.6,68 379.7,68.6 379.9,69.2 C380.1,69.8 380.4,70.3 380.8,70.7 C381.2,71.1 381.6,71.5 382.2,71.7 C382.7,71.9 383.3,72.1 383.9,72.1 C384.4,72.1 384.8,72 385.2,71.9 C385.6,71.8 385.9,71.6 386.3,71.4 C386.6,71.2 386.9,71 387.2,70.7 C387.5,70.4 387.8,70.1 388,69.8 L391.8,72.5 C391.4,73.1 390.9,73.6 390.4,74.1 C389.9,74.6 389.3,75 388.7,75.4 C388.1,75.8 387.3,76 386.5,76.2 C385.5,76.5 384.6,76.6 383.6,76.6 L383.6,76.6 Z" id="Shape" fill="#FFFFFF" sketch:type="MSShapeGroup"></path>
            <path d="M398.9,58.3 L413.4,58.3 L413.4,62.5 L403.9,62.5 L403.9,65.2 L412.5,65.2 L412.5,69.1 L403.9,69.1 L403.9,72 L413.6,72 L413.6,76.2 L399,76.2 L399,58.3 L398.9,58.3 Z" id="Shape" fill="#FFFFFF" sketch:type="MSShapeGroup"></path>
            <rect id="Rectangle-path" sketch:type="MSShapeGroup" transform="translate(50.525450, 51.002740) rotate(-45.000000) translate(-50.525450, -51.002740) " x="41.0755406" y="41.5528306" width="18.8998187" height="18.8998187"></rect>
            <path d="M21.9,66.4 C19.7,68.6 19.7,72.1 21.9,74.3 L27.4,79.8 C29.6,82 33.1,82 35.3,79.8 L39.6,75.5 L26.2,62 L21.9,66.4 L21.9,66.4 Z" id="Shape" sketch:type="MSShapeGroup"></path>
            <path d="M79.4,35.6 C81.6,33.4 81.6,29.9 79.4,27.7 L73.9,22.2 C71.7,20 68.2,20 66,22.2 L61.7,26.5 L75,40 L79.4,35.6 L79.4,35.6 Z" id="Shape" sketch:type="MSShapeGroup"></path>
            <path d="M35.3,22.3 C33.1,20.1 29.6,20.1 27.4,22.3 L21.9,27.8 C19.7,30 19.7,33.5 21.9,35.7 L26.2,40 L39.6,26.6 L35.3,22.3 L35.3,22.3 Z" id="Shape" sketch:type="MSShapeGroup"></path>
            <path d="M66,79.7 C68.2,81.9 71.7,81.9 73.9,79.7 L79.4,74.2 C81.6,72 81.6,68.5 79.4,66.3 L75,62 L61.6,75.4 L66,79.7 L66,79.7 Z" id="Shape" sketch:type="MSShapeGroup"></path>
            <path d="M61.6,26.6 L50.6,15.6 L39.2,4.2 C34.8,-0.2 27.7,-0.2 23.3,4.2 L3.7,23.8 C-0.7,28.2 -0.7,35.3 3.7,39.7 L15.1,51.1 L26.1,40.1 L21.8,35.8 C19.6,33.6 19.6,30.1 21.8,27.9 L27.3,22.4 C29.5,20.2 33,20.2 35.2,22.4 L39.5,26.7 L50.5,37.7 L64,51 L75,40 L61.6,26.6 L61.6,26.6 Z" id="Shape" fill="#CACACA" sketch:type="MSShapeGroup"></path>
            <path d="M97.4,62.4 L86,51 L75,62 L79.3,66.3 C81.5,68.5 81.5,72 79.3,74.2 L73.8,79.7 C71.6,81.9 68.1,81.9 65.9,79.7 L61.6,75.4 L50.6,64.4 L37.2,51 L26.2,62 L39.6,75.4 L50.6,86.4 L62,97.8 C66.4,102.2 73.5,102.2 77.9,97.8 L97.5,78.2 C101.8,73.9 101.8,66.8 97.4,62.4 L97.4,62.4 Z" id="Shape" fill="#CACACA" sketch:type="MSShapeGroup"></path>
            <path d="M35.3,79.7 C33.1,81.9 29.6,81.9 27.4,79.7 L21.9,74.2 C19.7,72 19.7,68.5 21.9,66.3 L26.2,62 L37.2,51 L50.6,37.6 L39.6,26.6 L26.2,40 L15.2,51 L3.8,62.4 C-0.6,66.8 -0.6,73.9 3.8,78.3 L23.4,97.9 C27.8,102.3 34.9,102.3 39.3,97.9 L50.7,86.5 L39.7,75.5 L35.3,79.7 L35.3,79.7 Z" id="Shape" fill="#FFFFFF" sketch:type="MSShapeGroup"></path>
            <path d="M97.4,23.8 L77.8,4.2 C73.4,-0.2 66.3,-0.2 61.9,4.2 L50.5,15.6 L61.5,26.6 L65.8,22.3 C68,20.1 71.5,20.1 73.7,22.3 L79.2,27.8 C81.4,30 81.4,33.5 79.2,35.7 L75,40 L64,51 L50.6,64.4 L61.6,75.4 L75,62 L86,51 L97.4,39.6 C101.8,35.2 101.8,28.1 97.4,23.8 L97.4,23.8 Z" id="Shape" fill="#FFFFFF" sketch:type="MSShapeGroup"></path>
        </g>
    </g>
</svg>