<?xml version="1.0" encoding="UTF-8" standalone="no"?>
<svg width="363px" height="30px" viewBox="0 0 363 30" version="1.1" xmlns="http://www.w3.org/2000/svg" xmlns:xlink="http://www.w3.org/1999/xlink" xmlns:sketch="http://www.bohemiancoding.com/sketch/ns">
    <!-- Generator: Sketch 3.3.2 (12043) - http://www.bohemiancoding.com/sketch -->
    <title>wri</title>
    <desc>Created with Sketch.</desc>
    <defs></defs>
    <g id="WORK" stroke="none" stroke-width="1" fill="none" fill-rule="evenodd" sketch:type="MSPage">
        <g id="desktop-Projects-Copy-2" sketch:type="MSArtboardGroup" transform="translate(-201.000000, -1083.000000)" fill="#FFFFFF">
            <g id="wri" sketch:type="MSLayerGroup" transform="translate(201.000000, 1083.000000)">
                <path d="M4.12772389,19.6309359 L2.44237309,21.3150271 L4.30658773,23.1792417 L5.99067893,21.4938909 L4.12772389,19.6309359 Z M8.35747575,10.3690641 L15.0006298,3.72716967 L17.2641391,5.99067893 L19.1270941,4.12772389 L15.0711677,0.0717974556 L15.0006298,0 L6.49452072,8.50610908 L8.35747575,10.3690641 Z M3.72716967,15.0006298 L5.99067893,12.7371205 L4.12772389,10.8729059 L0,15.0006298 L0.0717974556,15.0711677 L8.50610908,23.5067389 L10.3690641,21.6425242 L3.72716967,15.0006298 Z M24.0093211,17.2641391 L25.8735357,19.1270941 L30,15.0006298 L21.4938909,6.49452072 L19.6309359,8.35747575 L26.2728303,15.0006298 L24.0093211,17.2641391 Z M21.6425242,19.6309359 L15.0006298,26.2728303 L12.7371205,24.0093211 L10.8729059,25.8735357 L15.0006298,30 L23.5054793,21.4938909 L21.6425242,19.6309359 Z M25.8735357,10.3690641 L27.5576269,8.68497292 L25.6946719,6.82201789 L24.0093211,8.50610908 L25.8735357,10.3690641 Z M21.4938909,24.0093211 L19.6309359,25.8735357 L21.3150271,27.5576269 L23.1792417,25.6946719 L21.4938909,24.0093211 Z M10.3690641,4.12772389 L8.68497292,2.44237309 L6.82075828,4.30658773 L8.50610908,5.99067893 L10.3690641,4.12772389 Z M12.8844943,19.6309359 L6.82075828,25.6946719 L8.68497292,27.5576269 L14.7487089,21.4938909 L12.8844943,19.6309359 Z M17.1155057,19.1270941 L23.5054793,12.7371205 L21.6425242,10.8729059 L15.2512911,17.2641391 L17.1155057,19.1270941 Z M17.1155057,10.3690641 L23.1792417,4.30658773 L21.3150271,2.44237309 L15.2512911,8.50610908 L17.1155057,10.3690641 Z M12.8844943,10.8729059 L6.49452072,17.2641391 L8.35747575,19.1270941 L14.7487089,12.7371205 L12.8844943,10.8729059 Z M12.7371205,15.2525507 L10.8729059,17.1155057 L17.2641391,23.5067389 L19.1270941,21.6425242 L12.7371205,15.2525507 Z M10.3690641,12.8844943 L4.30658773,6.82201789 L2.44237309,8.68497292 L8.50610908,14.7487089 L10.3690641,12.8844943 Z M19.1270941,12.8844943 L12.7371205,6.49452072 L10.8729059,8.35747575 L17.2641391,14.7487089 L19.1270941,12.8844943 Z M21.4938909,15.2525507 L19.6309359,17.1155057 L25.6946719,23.1792417 L27.5576269,21.3150271 L21.4938909,15.2525507 Z M39.5434252,11.8558923 C39.3442332,11.2430976 39.1613273,10.8441558 38.9295629,10.6790765 C38.746657,10.5627706 38.4146702,10.5290043 38.2655894,10.5290043 C38.0989696,10.5290043 38,10.5139971 38,10.3801828 C38,10.2651275 38.1315419,10.2313612 38.364559,10.2313612 C39.2277246,10.2313612 40.1422542,10.2801347 40.291335,10.2801347 C40.4416686,10.2801347 41.1720395,10.2313612 42.1354275,10.2313612 C42.3684446,10.2313612 42.4849531,10.2801347 42.4849531,10.3801828 C42.4849531,10.5139971 42.3509057,10.5290043 42.1842859,10.5290043 C42.052744,10.5290043 41.8861242,10.5290043 41.7696156,10.5952862 C41.6205348,10.6628187 41.5867097,10.7791246 41.5867097,10.9604618 C41.5867097,11.1768158 41.7533295,11.7395863 41.9525216,12.4861953 C42.2343971,13.5804714 43.7803279,18.6053872 44.0784896,19.5345839 L44.1286008,19.5345839 L47.3507515,10.8779221 C47.5173712,10.413949 47.6338798,10.2801347 47.7666745,10.2801347 C47.9495804,10.2801347 48.0322639,10.5290043 48.2477421,11.0605099 L51.7041627,19.418278 L51.7530211,19.418278 C52.0524356,18.3064935 53.3816354,13.9293891 53.9629254,11.988456 C54.079434,11.6082732 54.1295452,11.2593555 54.1295452,11.0267436 C54.1295452,10.7616162 53.9792116,10.5290043 53.3315242,10.5290043 C53.1649044,10.5290043 53.0483959,10.4789803 53.0483959,10.3801828 C53.0483959,10.2651275 53.1824433,10.2313612 53.4317466,10.2313612 C54.3111983,10.2313612 55.0102497,10.2801347 55.1593305,10.2801347 C55.2758391,10.2801347 55.9899238,10.2313612 56.5373887,10.2313612 C56.7202947,10.2313612 56.8368032,10.2651275 56.8368032,10.363925 C56.8368032,10.4789803 56.7528669,10.5290043 56.6037861,10.5290043 C56.4371663,10.5290043 56.205402,10.5465127 56.0224961,10.6127946 C55.624112,10.7616162 55.4412061,11.4244348 55.0916804,12.3698894 C54.3287372,14.4596441 52.5836144,19.7334295 51.7705601,22.2208754 C51.5876541,22.8011544 51.5049706,23 51.2882397,23 C51.1216199,23 51.0226503,22.8011544 50.773347,22.1871092 L47.3181792,13.8631073 L47.2856069,13.8631073 C46.9699063,14.7085137 44.760002,20.5950938 44.0459173,22.1208273 C43.7302167,22.8011544 43.6462804,23 43.4470883,23 C43.2804686,23 43.215324,22.8174122 43.0649904,22.3859548 L39.5434252,11.8558923 Z M58.0983529,16.4993747 C58.0983529,13.6630111 59.9750176,10 64.9585773,10 C69.0952576,10 71.6697209,12.4036556 71.6697209,16.2017316 C71.6697209,19.998557 69.0113213,23 64.7919575,23 C60.0251288,23 58.0983529,19.4357864 58.0983529,16.4993747 Z M69.343308,16.8145262 C69.343308,13.1002405 67.2010539,10.7941318 64.4762569,10.7941318 C62.5657671,10.7941318 60.3909407,11.8558923 60.3909407,15.9853776 C60.3909407,19.4357864 62.3001777,22.1708514 65.4897561,22.1708514 C66.6535889,22.1708514 69.343308,21.6068302 69.343308,16.8145262 Z M76.1759713,15.039923 C76.1759713,12.5187109 76.1759713,12.0547379 76.143399,11.5244829 C76.1108267,10.9604618 75.9767792,10.6953343 75.4293143,10.580279 C75.2952668,10.5465127 75.0121385,10.5290043 74.7803741,10.5290043 C74.5974682,10.5290043 74.4972458,10.4964887 74.4972458,10.3801828 C74.4972458,10.2651275 74.6137544,10.2313612 74.8630576,10.2313612 C75.7450149,10.2313612 76.7898336,10.2801347 77.1393593,10.2801347 C77.7043631,10.2801347 78.9671656,10.2313612 79.4820583,10.2313612 C80.5281297,10.2313612 81.6405986,10.3301587 82.5375892,10.9442039 C83.0023706,11.2593555 83.6688497,12.1047619 83.6688497,13.2165464 C83.6688497,14.4433862 83.1539571,15.5714286 81.4752316,16.9308321 C82.9535122,18.787975 84.0998061,20.2636845 85.080733,21.2916787 C86.0102959,22.2533911 86.6918084,22.369697 86.9398588,22.419721 C87.1240175,22.4534873 87.2730984,22.4684945 87.4058931,22.4684945 C87.5386878,22.4684945 87.6050851,22.5185185 87.6050851,22.6023088 C87.6050851,22.7348725 87.4898294,22.7686388 87.2893845,22.7686388 L85.7121342,22.7686388 C84.7800658,22.7686388 84.3653955,22.6848485 83.9344391,22.4534873 C83.2191016,22.0708033 82.5877004,21.2916787 81.6581375,20.0148148 C80.9929112,19.1031265 80.229968,17.9763348 80.0132371,17.7262145 C79.9293008,17.627417 79.8303312,17.6111592 79.7138226,17.6111592 L78.269367,17.577393 C78.1866835,17.577393 78.1365723,17.6111592 78.1365723,17.7099567 L78.1365723,17.9413179 C78.1365723,19.4845599 78.1365723,20.7939394 78.2192558,21.4905243 C78.269367,21.9720058 78.3683367,22.3371813 78.8669432,22.4034632 C79.1162464,22.4359788 79.4820583,22.4684945 79.6812503,22.4684945 C79.814045,22.4684945 79.8804424,22.5185185 79.8804424,22.6023088 C79.8804424,22.7186147 79.7639338,22.7686388 79.5484556,22.7686388 C78.5850676,22.7686388 77.3560902,22.7186147 77.1055342,22.7186147 C76.7898336,22.7186147 75.7450149,22.7686388 75.0797886,22.7686388 C74.8630576,22.7686388 74.7478019,22.7186147 74.7478019,22.6023088 C74.7478019,22.5185185 74.8129464,22.4684945 75.0121385,22.4684945 C75.2626945,22.4684945 75.4618866,22.4359788 75.6109674,22.4034632 C75.944207,22.3371813 76.0268904,21.9720058 76.0932878,21.4905243 C76.1759713,20.7939394 76.1759713,19.4845599 76.1759713,17.9588264 L76.1759713,15.039923 Z M78.1365723,16.3505532 C78.1365723,16.5318903 78.1691446,16.5994228 78.2856532,16.6481962 C78.6339261,16.7645022 79.1325326,16.8145262 79.5484556,16.8145262 C80.2124291,16.8145262 80.4291601,16.7482443 80.7273218,16.5318903 C81.2259283,16.1679654 81.7069959,15.4050986 81.7069959,14.045695 C81.7069959,11.6908129 80.1460318,11.0104858 79.1663576,11.0104858 C78.7504346,11.0104858 78.4522729,11.0267436 78.2856532,11.0767677 C78.1691446,11.1092833 78.1365723,11.1768158 78.1365723,11.3093795 L78.1365723,16.3505532 Z M93.3553463,17.9588264 C93.3553463,20.0810967 93.3553463,21.2253968 93.7036192,21.5230399 C93.9867475,21.7731602 94.4189567,21.8882155 95.7143314,21.8882155 C96.5950359,21.8882155 97.2427233,21.8732083 97.6586463,21.4242424 C97.8578384,21.2078884 98.0570304,20.7439153 98.0896027,20.4287638 C98.1058888,20.2799423 98.1397139,20.1811448 98.2725086,20.1811448 C98.3890172,20.1811448 98.4053033,20.2636845 98.4053033,20.4625301 C98.4053033,20.6451178 98.2900475,21.8882155 98.156,22.369697 C98.0570304,22.7348725 97.9743469,22.8174122 97.1099286,22.8174122 C95.9135235,22.8174122 95.0503579,22.783646 94.3024481,22.7686388 C93.5545383,22.7348725 92.9569622,22.7186147 92.2767025,22.7186147 C92.0925438,22.7186147 91.726732,22.7186147 91.3296007,22.7348725 C90.9462499,22.7348725 90.5140408,22.7686388 90.1833068,22.7686388 C89.9665758,22.7686388 89.8500673,22.7186147 89.8500673,22.6023088 C89.8500673,22.5185185 89.9164646,22.4684945 90.1156567,22.4684945 C90.3649599,22.4684945 90.5654048,22.4359788 90.7144856,22.4034632 C91.0464724,22.3371813 91.1304086,21.9720058 91.196806,21.4905243 C91.2794895,20.7939394 91.2794895,19.4845599 91.2794895,17.9588264 L91.2794895,15.039923 C91.2794895,12.5187109 91.2794895,12.0547379 91.2456644,11.5244829 C91.2118394,10.9604618 91.0802974,10.6953343 90.5315797,10.580279 C90.398785,10.5465127 90.1995929,10.5290043 89.9841147,10.5290043 C89.7999561,10.5290043 89.7009864,10.4964887 89.7009864,10.3801828 C89.7009864,10.2651275 89.817495,10.2313612 90.0667982,10.2313612 C90.8472803,10.2313612 91.8933518,10.2801347 92.3418471,10.2801347 C92.741484,10.2801347 93.9541752,10.2313612 94.6006098,10.2313612 C94.8348797,10.2313612 94.9513883,10.2651275 94.9513883,10.3801828 C94.9513883,10.4964887 94.8499131,10.5290043 94.650721,10.5290043 C94.4690679,10.5290043 94.2034785,10.5465127 94.0042864,10.580279 C93.5545383,10.6628187 93.4217436,10.9442039 93.3879186,11.5244829 C93.3553463,12.0547379 93.3553463,12.5187109 93.3553463,15.039923 L93.3553463,17.9588264 Z M102.848915,15.039923 C102.848915,12.5187109 102.848915,12.0547379 102.816342,11.5244829 C102.78377,10.9604618 102.649723,10.6953343 102.102258,10.580279 C101.96821,10.5465127 101.686335,10.5290043 101.453318,10.5290043 C101.270412,10.5290043 101.170189,10.4964887 101.170189,10.3801828 C101.170189,10.2651275 101.286698,10.2313612 101.536001,10.2313612 C102.416706,10.2313612 103.462777,10.2801347 103.928811,10.2801347 C104.443704,10.2801347 105.491028,10.2313612 106.486988,10.2313612 C108.564098,10.2313612 111.337753,10.2313612 113.148021,12.1222703 C113.978614,12.9839346 114.759096,14.3608466 114.759096,16.3330447 C114.759096,18.4227994 113.879644,20.0148148 112.948829,20.9602694 C112.184633,21.7393939 110.458302,22.9174603 107.383979,22.9174603 C106.786403,22.9174603 106.10489,22.8674363 105.473489,22.8174122 C104.842088,22.7686388 104.260798,22.7186147 103.844875,22.7186147 C103.663222,22.7186147 103.29741,22.7186147 102.899026,22.7348725 C102.516928,22.7348725 102.084719,22.7686388 101.752732,22.7686388 C101.536001,22.7686388 101.420745,22.7186147 101.420745,22.6023088 C101.420745,22.5185185 101.48589,22.4684945 101.686335,22.4684945 C101.935638,22.4684945 102.13483,22.4359788 102.283911,22.4034632 C102.61715,22.3371813 102.699834,21.9720058 102.766231,21.4905243 C102.848915,20.7939394 102.848915,19.4845599 102.848915,17.9588264 L102.848915,15.039923 Z M104.924772,16.8645503 C104.924772,18.621645 104.94231,19.8997595 104.958597,20.214911 C104.976136,20.62886 105.008708,21.2916787 105.141502,21.4742665 C105.356981,21.789418 106.005921,22.1383357 107.317582,22.1383357 C109.011341,22.1383357 110.142601,21.8056758 111.137309,20.9440115 C112.200919,20.0310726 112.534158,18.5228475 112.534158,16.8145262 C112.534158,14.7085137 111.653454,13.3478595 110.938117,12.6687831 C109.410977,11.2093314 107.516774,11.0104858 106.221399,11.0104858 C105.889412,11.0104858 105.274297,11.0605099 105.141502,11.1267917 C104.991169,11.1930736 104.94231,11.2756133 104.94231,11.4582011 C104.924772,12.0222222 104.924772,13.4641655 104.924772,14.7747956 L104.924772,16.8645503 Z M126.369863,15.039923 C126.369863,12.5187109 126.369863,12.0547379 126.336038,11.5244829 C126.302213,10.9604618 126.169418,10.6953343 125.621953,10.580279 C125.487906,10.5465127 125.20603,10.5290043 124.973013,10.5290043 C124.79136,10.5290043 124.691138,10.4964887 124.691138,10.3801828 C124.691138,10.2651275 124.807646,10.2313612 125.056949,10.2313612 C125.937654,10.2313612 126.983725,10.2801347 127.331998,10.2801347 C127.897002,10.2801347 129.159805,10.2313612 129.674697,10.2313612 C130.720769,10.2313612 131.83449,10.3301587 132.731481,10.9442039 C133.196262,11.2593555 133.861489,12.1047619 133.861489,13.2165464 C133.861489,14.4433862 133.346596,15.5714286 131.667871,16.9308321 C133.147404,18.787975 134.293698,20.2636845 135.273372,21.2916787 C136.202935,22.2533911 136.884447,22.369697 137.132498,22.419721 C137.316657,22.4534873 137.465737,22.4684945 137.599785,22.4684945 C137.731327,22.4684945 137.798977,22.5185185 137.798977,22.6023088 C137.798977,22.7348725 137.682468,22.7686388 137.483276,22.7686388 L135.904773,22.7686388 C134.973958,22.7686388 134.559287,22.6848485 134.127078,22.4534873 C133.412993,22.0708033 132.781592,21.2916787 131.852029,20.0148148 C131.18555,19.1031265 130.422607,17.9763348 130.205876,17.7262145 C130.123193,17.627417 130.024223,17.6111592 129.907714,17.6111592 L128.463259,17.577393 C128.379323,17.577393 128.329211,17.6111592 128.329211,17.7099567 L128.329211,17.9413179 C128.329211,19.4845599 128.329211,20.7939394 128.413148,21.4905243 C128.463259,21.9720058 128.562228,22.3371813 129.059582,22.4034632 C129.308885,22.4359788 129.674697,22.4684945 129.875142,22.4684945 C130.006684,22.4684945 130.074334,22.5185185 130.074334,22.6023088 C130.074334,22.7186147 129.957826,22.7686388 129.741095,22.7686388 C128.778959,22.7686388 127.548729,22.7186147 127.299426,22.7186147 C126.983725,22.7186147 125.937654,22.7686388 125.27368,22.7686388 C125.056949,22.7686388 124.940441,22.7186147 124.940441,22.6023088 C124.940441,22.5185185 125.006838,22.4684945 125.20603,22.4684945 C125.455334,22.4684945 125.654526,22.4359788 125.803606,22.4034632 C126.136846,22.3371813 126.219529,21.9720058 126.285927,21.4905243 C126.369863,20.7939394 126.369863,19.4845599 126.369863,17.9588264 L126.369863,15.039923 Z M128.329211,16.3505532 C128.329211,16.5318903 128.361784,16.5994228 128.478292,16.6481962 C128.827818,16.7645022 129.326424,16.8145262 129.741095,16.8145262 C130.405068,16.8145262 130.621799,16.7482443 130.919961,16.5318903 C131.41982,16.1679654 131.900888,15.4050986 131.900888,14.045695 C131.900888,11.6908129 130.339924,11.0104858 129.358997,11.0104858 C128.943074,11.0104858 128.644912,11.0267436 128.478292,11.0767677 C128.361784,11.1092833 128.329211,11.1768158 128.329211,11.3093795 L128.329211,16.3505532 Z M141.472129,15.039923 C141.472129,12.5187109 141.472129,12.0547379 141.439556,11.5244829 C141.406984,10.9604618 141.272936,10.6953343 140.725472,10.580279 C140.591424,10.5465127 140.309548,10.5290043 140.076531,10.5290043 C139.893625,10.5290043 139.793403,10.4964887 139.793403,10.3801828 C139.793403,10.2651275 139.909912,10.2313612 140.159215,10.2313612 C140.608963,10.2313612 141.091283,10.247619 141.505954,10.247619 C141.93691,10.2651275 142.319008,10.2801347 142.552025,10.2801347 C143.083204,10.2801347 146.389291,10.2801347 146.704991,10.2651275 C147.020692,10.2313612 147.286281,10.1988456 147.419076,10.1638288 C147.503012,10.1488215 147.601982,10.0987975 147.684666,10.0987975 C147.768602,10.0987975 147.784888,10.1638288 147.784888,10.247619 C147.784888,10.363925 147.702205,10.5627706 147.652093,11.3256373 C147.634554,11.4919673 147.601982,12.2210678 147.568157,12.4199134 C147.551871,12.5024531 147.519299,12.6025012 147.40279,12.6025012 C147.286281,12.6025012 147.252456,12.5187109 147.252456,12.3698894 C147.252456,12.2535835 147.23617,11.9721982 147.153487,11.7733526 C147.036978,11.4744589 146.871611,11.2756133 146.041018,11.1768158 C145.75789,11.1430495 144.01402,11.1092833 143.682033,11.1092833 C143.599349,11.1092833 143.565524,11.1593074 143.565524,11.2756133 L143.565524,15.4713805 C143.565524,15.5864358 143.58181,15.6539683 143.682033,15.6539683 C144.046592,15.6539683 145.957082,15.6539683 146.33918,15.6214526 C146.737564,15.5864358 146.98812,15.5376623 147.137201,15.3713324 C147.252456,15.2387686 147.318854,15.156229 147.40279,15.156229 C147.469187,15.156229 147.519299,15.1899952 147.519299,15.2887927 C147.519299,15.3875902 147.452901,15.6539683 147.386504,16.4993747 C147.368965,16.8320346 147.318854,17.4948533 147.318854,17.6111592 C147.318854,17.7437229 147.318854,17.9250601 147.169773,17.9250601 C147.053264,17.9250601 147.020692,17.8600289 147.020692,17.7762386 C147.003153,17.6111592 147.003153,17.3948052 146.954295,17.1797018 C146.871611,16.8470418 146.638594,16.5994228 146.023479,16.5318903 C145.707778,16.4993747 144.064131,16.4831169 143.664494,16.4831169 C143.58181,16.4831169 143.565524,16.5493987 143.565524,16.6481962 L143.565524,17.9588264 C143.565524,18.5228475 143.549238,20.048581 143.565524,20.5288119 C143.599349,21.6743627 143.864939,21.9219817 145.558698,21.9219817 C145.990907,21.9219817 146.687453,21.9219817 147.119662,21.7231361 C147.551871,21.5230399 147.751063,21.1753728 147.867571,20.4962963 C147.901397,20.3137085 147.935222,20.2474266 148.050477,20.2474266 C148.183272,20.2474266 148.183272,20.3787398 148.183272,20.5450697 C148.183272,20.9277537 148.050477,22.0545455 147.967794,22.3859548 C147.851285,22.8174122 147.702205,22.8174122 147.070803,22.8174122 C145.824287,22.8174122 144.909757,22.783646 144.196925,22.7686388 C143.482841,22.7348725 142.967948,22.7186147 142.468089,22.7186147 C142.286436,22.7186147 141.920624,22.7186147 141.52224,22.7348725 C141.140142,22.7348725 140.707933,22.7686388 140.375946,22.7686388 C140.159215,22.7686388 140.043959,22.7186147 140.043959,22.6023088 C140.043959,22.5185185 140.109104,22.4684945 140.309548,22.4684945 C140.558852,22.4684945 140.758044,22.4359788 140.907125,22.4034632 C141.240364,22.3371813 141.323048,21.9720058 141.389445,21.4905243 C141.472129,20.7939394 141.472129,19.4845599 141.472129,17.9588264 L141.472129,15.039923 Z M152.160849,22.5685426 C151.89526,22.4534873 151.845149,22.369697 151.845149,22.0045214 C151.845149,21.0928331 151.910293,20.0986051 151.927832,19.832227 C151.945371,19.584608 151.99423,19.4007696 152.127024,19.4007696 C152.276105,19.4007696 152.293644,19.5508418 152.293644,19.6834055 C152.293644,19.8997595 152.360041,20.2474266 152.442725,20.5288119 C152.808537,21.7556518 153.788211,22.203367 154.819249,22.203367 C156.313816,22.203367 157.044187,21.1928812 157.044187,20.3137085 C157.044187,19.5008177 156.794883,18.7379509 155.415572,17.6611833 L154.652629,17.0633959 C152.824823,15.6364598 152.193422,14.4771525 152.193422,13.1340067 C152.193422,11.3093795 153.721813,10 156.030687,10 C157.110584,10 157.808382,10.1638288 158.240592,10.2801347 C158.389672,10.3139009 158.473609,10.363925 158.473609,10.4789803 C158.473609,10.6953343 158.405959,11.1768158 158.405959,12.4699375 C158.405959,12.8338624 158.3571,12.9676768 158.223053,12.9676768 C158.107797,12.9676768 158.057686,12.8676287 158.057686,12.6687831 C158.057686,12.5187109 157.973749,12.0059644 157.625477,11.5732564 C157.377426,11.2593555 156.895106,10.7616162 155.815209,10.7616162 C154.584979,10.7616162 153.837069,11.4744589 153.837069,12.4699375 C153.837069,13.2328042 154.22042,13.8130832 155.599731,14.8573353 L156.064512,15.206253 C158.073972,16.7157287 158.789309,17.8600289 158.789309,19.4357864 C158.789309,20.3962482 158.423498,21.5405483 157.22584,22.3196729 C156.395246,22.8511785 155.465683,23 154.584979,23 C153.622844,23 152.874934,22.8836941 152.160849,22.5685426 Z M162.086627,16.4993747 C162.086627,13.6630111 163.963292,10 168.948104,10 C173.084784,10 175.657995,12.4036556 175.657995,16.2017316 C175.657995,19.998557 173.000848,23 168.781484,23 C164.014656,23 162.086627,19.4357864 162.086627,16.4993747 Z M173.332835,16.8145262 C173.332835,13.1002405 171.190581,10.7941318 168.465784,10.7941318 C166.555294,10.7941318 164.379215,11.8558923 164.379215,15.9853776 C164.379215,19.4357864 166.289704,22.1708514 169.479283,22.1708514 C170.643116,22.1708514 173.332835,21.6068302 173.332835,16.8145262 Z M179.679419,15.039923 C179.679419,12.5187109 179.679419,12.0547379 179.646847,11.5244829 C179.614275,10.9604618 179.480227,10.6953343 178.932762,10.580279 C178.798715,10.5465127 178.516839,10.5290043 178.283822,10.5290043 C178.102169,10.5290043 178.003199,10.4964887 178.003199,10.3801828 C178.003199,10.2651275 178.118455,10.2313612 178.366506,10.2313612 C179.248463,10.2313612 180.294534,10.2801347 180.793141,10.2801347 C181.191525,10.2801347 182.237597,10.2313612 182.836425,10.2313612 C183.084476,10.2313612 183.202237,10.2651275 183.202237,10.3801828 C183.202237,10.4964887 183.102015,10.5290043 182.935395,10.5290043 C182.753742,10.5290043 182.652267,10.5465127 182.454327,10.580279 C182.005832,10.6628187 181.871785,10.9442039 181.839212,11.5244829 C181.80664,12.0547379 181.80664,12.5187109 181.80664,15.039923 L181.80664,17.361039 C181.80664,19.7659452 182.287708,20.7776816 183.102015,21.4405002 C183.848672,22.0545455 184.614121,22.1208273 185.177872,22.1208273 C185.909495,22.1208273 186.806486,21.8882155 187.470459,21.2253968 C188.384989,20.3137085 188.4351,18.8204906 188.4351,17.1134199 L188.4351,15.039923 C188.4351,12.5187109 188.4351,12.0547379 188.400022,11.5244829 C188.36745,10.9604618 188.234655,10.6953343 187.68719,10.580279 C187.553143,10.5465127 187.271267,10.5290043 187.088361,10.5290043 C186.905456,10.5290043 186.806486,10.4964887 186.806486,10.3801828 C186.806486,10.2651275 186.922994,10.2313612 187.154759,10.2313612 C188.002891,10.2313612 189.048963,10.2801347 189.066501,10.2801347 C189.265693,10.2801347 190.311765,10.2313612 190.959452,10.2313612 C191.192469,10.2313612 191.308978,10.2651275 191.308978,10.3801828 C191.308978,10.4964887 191.207503,10.5290043 191.008311,10.5290043 C190.826658,10.5290043 190.726435,10.5465127 190.527243,10.580279 C190.078748,10.6628187 189.945953,10.9442039 189.912128,11.5244829 C189.879556,12.0547379 189.879556,12.5187109 189.879556,15.039923 L189.879556,16.8145262 C189.879556,18.6541607 189.69665,20.6126022 188.301053,21.8056758 C187.122187,22.8174122 185.925781,23 184.845885,23 C183.96518,23 182.371644,22.9499759 181.1577,21.8556999 C180.310821,21.0928331 179.679419,19.8659933 179.679419,17.4610871 L179.679419,15.039923 Z M196.159743,15.039923 C196.159743,12.5187109 196.159743,12.0547379 196.125918,11.5244829 C196.093346,10.9604618 195.960551,10.6953343 195.411833,10.580279 C195.277786,10.5465127 194.99591,10.5290043 194.762893,10.5290043 C194.58124,10.5290043 194.481017,10.4964887 194.481017,10.3801828 C194.481017,10.2651275 194.597526,10.2313612 194.846829,10.2313612 C195.727534,10.2313612 196.773605,10.2801347 197.121878,10.2801347 C197.686882,10.2801347 198.949684,10.2313612 199.464577,10.2313612 C200.510649,10.2313612 201.62437,10.3301587 202.521361,10.9442039 C202.986142,11.2593555 203.651369,12.1047619 203.651369,13.2165464 C203.651369,14.4433862 203.136476,15.5714286 201.45775,16.9308321 C202.937284,18.787975 204.083578,20.2636845 205.063252,21.2916787 C205.992815,22.2533911 206.674327,22.369697 206.922378,22.419721 C207.106536,22.4534873 207.255617,22.4684945 207.389665,22.4684945 C207.521207,22.4684945 207.588857,22.5185185 207.588857,22.6023088 C207.588857,22.7348725 207.472348,22.7686388 207.273156,22.7686388 L205.694653,22.7686388 C204.763837,22.7686388 204.349167,22.6848485 203.916958,22.4534873 C203.202873,22.0708033 202.571472,21.2916787 201.641909,20.0148148 C200.97543,19.1031265 200.212487,17.9763348 199.995756,17.7262145 C199.913072,17.627417 199.814103,17.6111592 199.697594,17.6111592 L198.253139,17.577393 C198.169202,17.577393 198.119091,17.6111592 198.119091,17.7099567 L198.119091,17.9413179 C198.119091,19.4845599 198.119091,20.7939394 198.203027,21.4905243 C198.253139,21.9720058 198.352108,22.3371813 198.849462,22.4034632 C199.098765,22.4359788 199.464577,22.4684945 199.663769,22.4684945 C199.796564,22.4684945 199.864214,22.5185185 199.864214,22.6023088 C199.864214,22.7186147 199.747705,22.7686388 199.530975,22.7686388 C198.567587,22.7686388 197.338609,22.7186147 197.089306,22.7186147 C196.773605,22.7186147 195.727534,22.7686388 195.06356,22.7686388 C194.846829,22.7686388 194.730321,22.7186147 194.730321,22.6023088 C194.730321,22.5185185 194.796718,22.4684945 194.99591,22.4684945 C195.245213,22.4684945 195.444405,22.4359788 195.593486,22.4034632 C195.926726,22.3371813 196.009409,21.9720058 196.075807,21.4905243 C196.159743,20.7939394 196.159743,19.4845599 196.159743,17.9588264 L196.159743,15.039923 Z M198.119091,16.3505532 C198.119091,16.5318903 198.151663,16.5994228 198.268172,16.6481962 C198.617698,16.7645022 199.116304,16.8145262 199.530975,16.8145262 C200.194948,16.8145262 200.411679,16.7482443 200.709841,16.5318903 C201.2097,16.1679654 201.690768,15.4050986 201.690768,14.045695 C201.690768,11.6908129 200.129803,11.0104858 199.148877,11.0104858 C198.732954,11.0104858 198.434792,11.0267436 198.268172,11.0767677 C198.151663,11.1092833 198.119091,11.1768158 198.119091,11.3093795 L198.119091,16.3505532 Z M210.210926,21.1928812 C208.584817,19.7659452 208.152608,17.9088023 208.152608,16.3005291 C208.152608,15.1724868 208.500881,13.2165464 210.09567,11.7570948 C211.292075,10.6628187 212.869325,10 215.344819,10 C216.374604,10 216.989719,10.0650313 217.753915,10.1638288 C218.385317,10.247619 218.916495,10.3964406 219.415102,10.4464646 C219.598008,10.4639731 219.663152,10.5465127 219.663152,10.6453102 C219.663152,10.7791246 219.614294,10.9779702 219.581722,11.5582492 C219.547897,12.1047619 219.564183,13.0177008 219.531611,13.3478595 C219.514072,13.5967292 219.481499,13.7305435 219.332418,13.7305435 C219.198371,13.7305435 219.165799,13.5967292 219.165799,13.365368 C219.149513,12.8513709 218.932782,12.2710919 218.518111,11.8396344 C217.969394,11.2593555 216.674019,10.8116402 215.145627,10.8116402 C213.701171,10.8116402 212.75407,11.1768158 212.022446,11.8396344 C210.809755,12.9501684 210.494054,14.5259259 210.494054,16.1341991 C210.494054,20.0810967 213.500727,22.0382876 215.726917,22.0382876 C217.205198,22.0382876 218.102188,21.8732083 218.767415,21.1090909 C219.04929,20.7939394 219.266021,20.3137085 219.332418,20.0148148 C219.38253,19.750938 219.415102,19.6834055 219.547897,19.6834055 C219.663152,19.6834055 219.69823,19.7984608 219.69823,19.9322751 C219.69823,20.1311207 219.499038,21.5743146 219.332418,22.1383357 C219.248482,22.419721 219.183338,22.5022607 218.900209,22.6185666 C218.236236,22.8836941 216.973433,23 215.909823,23 C213.634774,23 211.724284,22.5022607 210.210926,21.1928812 Z M224.688054,15.039923 C224.688054,12.5187109 224.688054,12.0547379 224.655482,11.5244829 C224.620404,10.9604618 224.488862,10.6953343 223.940144,10.580279 C223.807349,10.5465127 223.524221,10.5290043 223.292457,10.5290043 C223.109551,10.5290043 223.009328,10.4964887 223.009328,10.3801828 C223.009328,10.2651275 223.125837,10.2313612 223.37514,10.2313612 C223.824888,10.2313612 224.305956,10.247619 224.720626,10.247619 C225.152835,10.2651275 225.534933,10.2801347 225.766698,10.2801347 C226.299129,10.2801347 229.605216,10.2801347 229.920917,10.2651275 C230.236617,10.2313612 230.502207,10.1988456 230.635002,10.1638288 C230.718938,10.1488215 230.817907,10.0987975 230.900591,10.0987975 C230.983274,10.0987975 230.999561,10.1638288 230.999561,10.247619 C230.999561,10.363925 230.91813,10.5627706 230.868019,11.3256373 C230.85048,11.4919673 230.817907,12.2210678 230.784082,12.4199134 C230.767796,12.5024531 230.733971,12.6025012 230.618715,12.6025012 C230.502207,12.6025012 230.468382,12.5187109 230.468382,12.3698894 C230.468382,12.2535835 230.452096,11.9721982 230.369412,11.7733526 C230.251651,11.4744589 230.087537,11.2756133 229.256943,11.1768158 C228.973815,11.1430495 227.228692,11.1092833 226.897958,11.1092833 C226.814022,11.1092833 226.78145,11.1593074 226.78145,11.2756133 L226.78145,15.4713805 C226.78145,15.5864358 226.797736,15.6539683 226.897958,15.6539683 C227.262517,15.6539683 229.173007,15.6539683 229.555105,15.6214526 C229.953489,15.5864358 230.202792,15.5376623 230.353126,15.3713324 C230.468382,15.2387686 230.534779,15.156229 230.618715,15.156229 C230.685113,15.156229 230.733971,15.1899952 230.733971,15.2887927 C230.733971,15.3875902 230.668827,15.6539683 230.602429,16.4993747 C230.58489,16.8320346 230.534779,17.4948533 230.534779,17.6111592 C230.534779,17.7437229 230.534779,17.9250601 230.385698,17.9250601 C230.26919,17.9250601 230.236617,17.8600289 230.236617,17.7762386 C230.219078,17.6111592 230.219078,17.3948052 230.17022,17.1797018 C230.087537,16.8470418 229.854519,16.5994228 229.239404,16.5318903 C228.923704,16.4993747 227.278803,16.4831169 226.880419,16.4831169 C226.797736,16.4831169 226.78145,16.5493987 226.78145,16.6481962 L226.78145,17.9588264 C226.78145,18.5228475 226.763911,20.048581 226.78145,20.5288119 C226.814022,21.6743627 227.079611,21.9219817 228.774623,21.9219817 C229.206832,21.9219817 229.903378,21.9219817 230.335587,21.7231361 C230.767796,21.5230399 230.966988,21.1753728 231.083497,20.4962963 C231.117322,20.3137085 231.149894,20.2474266 231.266403,20.2474266 C231.399197,20.2474266 231.399197,20.3787398 231.399197,20.5450697 C231.399197,20.9277537 231.266403,22.0545455 231.183719,22.3859548 C231.067211,22.8174122 230.91813,22.8174122 230.286729,22.8174122 C229.040212,22.8174122 228.125683,22.783646 227.412851,22.7686388 C226.698766,22.7348725 226.183873,22.7186147 225.685267,22.7186147 C225.502361,22.7186147 225.136549,22.7186147 224.738165,22.7348725 C224.356067,22.7348725 223.923858,22.7686388 223.591871,22.7686388 C223.37514,22.7686388 223.259884,22.7186147 223.259884,22.6023088 C223.259884,22.5185185 223.325029,22.4684945 223.524221,22.4684945 C223.774777,22.4684945 223.973969,22.4359788 224.12305,22.4034632 C224.45629,22.3371813 224.538973,21.9720058 224.60537,21.4905243 C224.688054,20.7939394 224.688054,19.4845599 224.688054,17.9588264 L224.688054,15.039923 Z M235.375522,22.5685426 C235.109932,22.4534873 235.059821,22.369697 235.059821,22.0045214 C235.059821,21.0928331 235.126219,20.0986051 235.143757,19.832227 C235.158791,19.584608 235.210155,19.4007696 235.34295,19.4007696 C235.49203,19.4007696 235.509569,19.5508418 235.509569,19.6834055 C235.509569,19.8997595 235.575967,20.2474266 235.65865,20.5288119 C236.024462,21.7556518 237.004136,22.203367 238.033921,22.203367 C239.529741,22.203367 240.260112,21.1928812 240.260112,20.3137085 C240.260112,19.5008177 240.010809,18.7379509 238.631498,17.6611833 L237.868554,17.0633959 C236.040748,15.6364598 235.409347,14.4771525 235.409347,13.1340067 C235.409347,11.3093795 236.936486,10 239.246613,10 C240.326509,10 241.024308,10.1638288 241.456517,10.2801347 C241.605598,10.3139009 241.688281,10.363925 241.688281,10.4789803 C241.688281,10.6953343 241.621884,11.1768158 241.621884,12.4699375 C241.621884,12.8338624 241.573026,12.9676768 241.438978,12.9676768 C241.322469,12.9676768 241.272358,12.8676287 241.272358,12.6687831 C241.272358,12.5187109 241.189675,12.0059644 240.841402,11.5732564 C240.592099,11.2593555 240.111031,10.7616162 239.029882,10.7616162 C237.800904,10.7616162 237.052995,11.4744589 237.052995,12.4699375 C237.052995,13.2328042 237.436345,13.8130832 238.814404,14.8573353 L239.280438,15.206253 C241.289897,16.7157287 242.003982,17.8600289 242.003982,19.4357864 C242.003982,20.3962482 241.63817,21.5405483 240.441765,22.3196729 C239.611172,22.8511785 238.681609,23 237.800904,23 C236.837516,23 236.090859,22.8836941 235.375522,22.5685426 Z M253.930449,15.039923 C253.930449,12.5187109 253.930449,12.0547379 253.897877,11.5244829 C253.862799,10.9604618 253.697432,10.6790765 253.331621,10.5952862 C253.149967,10.5465127 252.933236,10.5290043 252.734044,10.5290043 C252.567425,10.5290043 252.468455,10.4964887 252.468455,10.363925 C252.468455,10.2651275 252.60125,10.2313612 252.866839,10.2313612 C253.49824,10.2313612 254.544312,10.2801347 255.026632,10.2801347 C255.441302,10.2801347 256.422229,10.2313612 257.053631,10.2313612 C257.269109,10.2313612 257.401903,10.2651275 257.401903,10.363925 C257.401903,10.4964887 257.301681,10.5290043 257.136314,10.5290043 C256.970947,10.5290043 256.8369,10.5465127 256.637708,10.580279 C256.189212,10.6628187 256.056418,10.9442039 256.023845,11.5244829 C255.988767,12.0547379 255.988767,12.5187109 255.988767,15.039923 L255.988767,17.9588264 C255.988767,19.5670996 255.988767,20.8777297 256.056418,21.5905724 C256.106529,22.0382876 256.223037,22.3371813 256.720391,22.4034632 C256.953408,22.4359788 257.31922,22.4684945 257.56727,22.4684945 C257.751429,22.4684945 257.834113,22.5185185 257.834113,22.6023088 C257.834113,22.7186147 257.701318,22.7686388 257.518412,22.7686388 C256.422229,22.7686388 255.374905,22.7186147 254.927663,22.7186147 C254.544312,22.7186147 253.49824,22.7686388 252.834267,22.7686388 C252.617536,22.7686388 252.501027,22.7186147 252.501027,22.6023088 C252.501027,22.5185185 252.567425,22.4684945 252.766617,22.4684945 C253.01592,22.4684945 253.216365,22.4359788 253.365446,22.4034632 C253.697432,22.3371813 253.796402,22.0545455 253.847766,21.5743146 C253.930449,20.8777297 253.930449,19.5670996 253.930449,17.9588264 L253.930449,15.039923 Z M263.905086,20.5125541 C263.937658,21.8056758 264.154389,22.2371332 264.486376,22.3521886 C264.768251,22.4534873 265.083952,22.4684945 265.349541,22.4684945 C265.5337,22.4684945 265.632669,22.5022607 265.632669,22.6023088 C265.632669,22.7348725 265.483589,22.7686388 265.250571,22.7686388 C264.170675,22.7686388 263.505449,22.7186147 263.189748,22.7186147 C263.040667,22.7186147 262.260185,22.7686388 261.39702,22.7686388 C261.180289,22.7686388 261.031208,22.7511304 261.031208,22.6023088 C261.031208,22.5022607 261.13143,22.4684945 261.296797,22.4684945 C261.513528,22.4684945 261.81169,22.4534873 262.044707,22.3859548 C262.475663,22.2533911 262.543313,21.7731602 262.5596,20.3299663 L262.709933,10.5627706 C262.709933,10.2313612 262.758792,10 262.925411,10 C263.107065,10 263.257398,10.2138528 263.539274,10.5139971 C263.738466,10.7291005 266.264071,13.3828764 268.689453,15.7852814 C269.819461,16.9145743 272.060685,19.3019721 272.343813,19.5670996 L272.427749,19.5670996 L272.26113,12.1222703 C272.243591,11.1092833 272.09451,10.7941318 271.696126,10.6290524 C271.446822,10.5290043 271.048438,10.5290043 270.815421,10.5290043 C270.616229,10.5290043 270.549832,10.4789803 270.549832,10.3801828 C270.549832,10.247619 270.732738,10.2313612 270.980788,10.2313612 C271.846459,10.2313612 272.641975,10.2801347 272.9915,10.2801347 C273.174406,10.2801347 273.805808,10.2313612 274.620115,10.2313612 C274.835593,10.2313612 275.00096,10.247619 275.00096,10.3801828 C275.00096,10.4789803 274.90199,10.5290043 274.702798,10.5290043 C274.536178,10.5290043 274.404636,10.5290043 274.204192,10.580279 C273.738157,10.7115921 273.606615,11.0605099 273.589077,11.988456 L273.407423,22.4534873 C273.407423,22.8174122 273.341026,22.9674844 273.190692,22.9674844 C273.007787,22.9674844 272.808594,22.783646 272.626941,22.6023088 C271.579617,21.6068302 269.452396,19.4357864 267.726065,17.7262145 C265.914545,15.9366041 264.071705,13.9118807 263.772291,13.5967292 L263.72218,13.5967292 L263.905086,20.5125541 Z M278.527536,22.5685426 C278.261947,22.4534873 278.211835,22.369697 278.211835,22.0045214 C278.211835,21.0928331 278.278233,20.0986051 278.294519,19.832227 C278.312058,19.584608 278.360916,19.4007696 278.493711,19.4007696 C278.644045,19.4007696 278.660331,19.5508418 278.660331,19.6834055 C278.660331,19.8997595 278.726728,20.2474266 278.809412,20.5288119 C279.175223,21.7556518 280.154898,22.203367 281.185936,22.203367 C282.680502,22.203367 283.410873,21.1928812 283.410873,20.3137085 C283.410873,19.5008177 283.16157,18.7379509 281.782259,17.6611833 L281.019316,17.0633959 C279.19151,15.6364598 278.560108,14.4771525 278.560108,13.1340067 C278.560108,11.3093795 280.0885,10 282.397374,10 C283.477271,10 284.176322,10.1638288 284.607278,10.2801347 C284.756359,10.3139009 284.840296,10.363925 284.840296,10.4789803 C284.840296,10.6953343 284.772645,11.1768158 284.772645,12.4699375 C284.772645,12.8338624 284.723787,12.9676768 284.590992,12.9676768 C284.474484,12.9676768 284.424373,12.8676287 284.424373,12.6687831 C284.424373,12.5187109 284.340436,12.0059644 283.992163,11.5732564 C283.744113,11.2593555 283.261793,10.7616162 282.181896,10.7616162 C280.951666,10.7616162 280.203756,11.4744589 280.203756,12.4699375 C280.203756,13.2328042 280.587107,13.8130832 281.966418,14.8573353 L282.431199,15.206253 C284.440659,16.7157287 285.155996,17.8600289 285.155996,19.4357864 C285.155996,20.3962482 284.790184,21.5405483 283.593779,22.3196729 C282.763186,22.8511785 281.83237,23 280.951666,23 C279.989531,23 279.241621,22.8836941 278.527536,22.5685426 Z M292.7729,11.1593074 L290.297406,11.2255892 C289.334018,11.2593555 288.934381,11.3418951 288.685078,11.7070707 C288.519711,11.9559404 288.437028,12.154786 288.404455,12.2873497 C288.37063,12.4199134 288.320519,12.4861953 288.220297,12.4861953 C288.103788,12.4861953 288.071216,12.4036556 288.071216,12.2210678 C288.071216,11.9559404 288.386916,10.4464646 288.419489,10.3139009 C288.4696,10.0987975 288.519711,10 288.618681,10 C288.752728,10 288.919348,10.1638288 289.334018,10.1988456 C289.815086,10.247619 290.446487,10.2801347 290.995205,10.2801347 L297.573554,10.2801347 C298.104732,10.2801347 298.470544,10.2313612 298.719848,10.1988456 C298.967898,10.1488215 299.100693,10.1150553 299.16709,10.1150553 C299.283599,10.1150553 299.301138,10.2138528 299.301138,10.4639731 C299.301138,10.8116402 299.251026,11.9559404 299.251026,12.3873978 C299.23474,12.5537278 299.200915,12.6525253 299.100693,12.6525253 C298.967898,12.6525253 298.935326,12.568735 298.91904,12.3211159 L298.901501,12.1385281 C298.868928,11.7070707 298.420433,11.2430976 296.942152,11.2093314 L294.848757,11.1593074 L294.848757,17.9588264 C294.848757,19.4845599 294.848757,20.7939394 294.93144,21.5080327 C294.981551,21.9720058 295.080521,22.3371813 295.579128,22.4034632 C295.812145,22.4359788 296.176704,22.4684945 296.42726,22.4684945 C296.608913,22.4684945 296.692849,22.5185185 296.692849,22.6023088 C296.692849,22.7186147 296.560054,22.7686388 296.377149,22.7686388 C295.280966,22.7686388 294.234894,22.7186147 293.76886,22.7186147 C293.386762,22.7186147 292.340691,22.7686388 291.676717,22.7686388 C291.459986,22.7686388 291.343478,22.7186147 291.343478,22.6023088 C291.343478,22.5185185 291.409875,22.4684945 291.609067,22.4684945 C291.85837,22.4684945 292.058815,22.4359788 292.207896,22.4034632 C292.539883,22.3371813 292.638852,21.9720058 292.688964,21.4905243 C292.7729,20.7939394 292.7729,19.4845599 292.7729,17.9588264 L292.7729,11.1593074 Z M303.943941,15.039923 C303.943941,12.5187109 303.943941,12.0547379 303.910116,11.5244829 C303.876291,10.9604618 303.710924,10.6790765 303.345112,10.5952862 C303.163459,10.5465127 302.946728,10.5290043 302.747536,10.5290043 C302.580916,10.5290043 302.481946,10.4964887 302.481946,10.363925 C302.481946,10.2651275 302.614741,10.2313612 302.880331,10.2313612 C303.511732,10.2313612 304.557803,10.2801347 305.040124,10.2801347 C305.454794,10.2801347 306.435721,10.2313612 307.067122,10.2313612 C307.2826,10.2313612 307.415395,10.2651275 307.415395,10.363925 C307.415395,10.4964887 307.315173,10.5290043 307.148553,10.5290043 C306.984439,10.5290043 306.850391,10.5465127 306.651199,10.580279 C306.202704,10.6628187 306.069909,10.9442039 306.037337,11.5244829 C306.002259,12.0547379 306.002259,12.5187109 306.002259,15.039923 L306.002259,17.9588264 C306.002259,19.5670996 306.002259,20.8777297 306.069909,21.5905724 C306.12002,22.0382876 306.236529,22.3371813 306.733883,22.4034632 C306.9669,22.4359788 307.332711,22.4684945 307.580762,22.4684945 C307.764921,22.4684945 307.847604,22.5185185 307.847604,22.6023088 C307.847604,22.7186147 307.714809,22.7686388 307.531903,22.7686388 C306.435721,22.7686388 305.388397,22.7186147 304.941154,22.7186147 C304.557803,22.7186147 303.511732,22.7686388 302.847758,22.7686388 C302.631027,22.7686388 302.514519,22.7186147 302.514519,22.6023088 C302.514519,22.5185185 302.580916,22.4684945 302.780108,22.4684945 C303.029411,22.4684945 303.228603,22.4359788 303.378937,22.4034632 C303.710924,22.3371813 303.809893,22.0545455 303.860005,21.5743146 C303.943941,20.8777297 303.943941,19.5670996 303.943941,17.9588264 L303.943941,15.039923 Z M315.125004,11.1593074 L312.649511,11.2255892 C311.68487,11.2593555 311.286486,11.3418951 311.037183,11.7070707 C310.871816,11.9559404 310.789132,12.154786 310.755307,12.2873497 C310.722735,12.4199134 310.672623,12.4861953 310.572401,12.4861953 C310.455892,12.4861953 310.42332,12.4036556 310.42332,12.2210678 C310.42332,11.9559404 310.739021,10.4464646 310.771593,10.3139009 C310.821704,10.0987975 310.871816,10 310.970785,10 C311.104833,10 311.2702,10.1638288 311.68487,10.1988456 C312.16719,10.247619 312.798591,10.2801347 313.347309,10.2801347 L319.925658,10.2801347 C320.455584,10.2801347 320.821396,10.2313612 321.071952,10.1988456 C321.320002,10.1488215 321.452797,10.1150553 321.519195,10.1150553 C321.635703,10.1150553 321.653242,10.2138528 321.653242,10.4639731 C321.653242,10.8116402 321.601878,11.9559404 321.601878,12.3873978 C321.586845,12.5537278 321.551767,12.6525253 321.452797,12.6525253 C321.320002,12.6525253 321.28743,12.568735 321.271144,12.3211159 L321.253605,12.1385281 C321.221033,11.7070707 320.771285,11.2430976 319.294257,11.2093314 L317.200861,11.1593074 L317.200861,17.9588264 C317.200861,19.4845599 317.200861,20.7939394 317.283545,21.5080327 C317.333656,21.9720058 317.432625,22.3371813 317.931232,22.4034632 C318.162996,22.4359788 318.528808,22.4684945 318.779364,22.4684945 C318.961017,22.4684945 319.043701,22.5185185 319.043701,22.6023088 C319.043701,22.7186147 318.912159,22.7686388 318.729253,22.7686388 C317.631818,22.7686388 316.586999,22.7186147 316.119712,22.7186147 C315.738867,22.7186147 314.692795,22.7686388 314.028822,22.7686388 C313.812091,22.7686388 313.695582,22.7186147 313.695582,22.6023088 C313.695582,22.5185185 313.761979,22.4684945 313.961172,22.4684945 C314.210475,22.4684945 314.409667,22.4359788 314.558748,22.4034632 C314.891987,22.3371813 314.990957,21.9720058 315.041068,21.4905243 C315.125004,20.7939394 315.125004,19.4845599 315.125004,17.9588264 L315.125004,11.1593074 Z M326.046742,15.039923 C326.046742,12.5187109 326.046742,12.0547379 326.01417,11.5244829 C325.981598,10.9604618 325.84755,10.6953343 325.300085,10.580279 C325.166038,10.5465127 324.884162,10.5290043 324.651145,10.5290043 C324.469492,10.5290043 324.369269,10.4964887 324.369269,10.3801828 C324.369269,10.2651275 324.485778,10.2313612 324.733829,10.2313612 C325.615786,10.2313612 326.661857,10.2801347 327.160464,10.2801347 C327.558848,10.2801347 328.604919,10.2313612 329.203748,10.2313612 C329.451799,10.2313612 329.56956,10.2651275 329.56956,10.3801828 C329.56956,10.4964887 329.469338,10.5290043 329.302718,10.5290043 C329.119812,10.5290043 329.01959,10.5465127 328.82165,10.580279 C328.373155,10.6628187 328.239108,10.9442039 328.206535,11.5244829 C328.173963,12.0547379 328.173963,12.5187109 328.173963,15.039923 L328.173963,17.361039 C328.173963,19.7659452 328.655031,20.7776816 329.469338,21.4405002 C330.215995,22.0545455 330.981443,22.1208273 331.545195,22.1208273 C332.276818,22.1208273 333.173809,21.8882155 333.837782,21.2253968 C334.752312,20.3137085 334.802423,18.8204906 334.802423,17.1134199 L334.802423,15.039923 C334.802423,12.5187109 334.802423,12.0547379 334.767345,11.5244829 C334.734773,10.9604618 334.601978,10.6953343 334.054513,10.580279 C333.920466,10.5465127 333.63859,10.5290043 333.455684,10.5290043 C333.272778,10.5290043 333.173809,10.4964887 333.173809,10.3801828 C333.173809,10.2651275 333.290317,10.2313612 333.522082,10.2313612 C334.370214,10.2313612 335.416285,10.2801347 335.432572,10.2801347 C335.633016,10.2801347 336.679088,10.2313612 337.326775,10.2313612 C337.559792,10.2313612 337.676301,10.2651275 337.676301,10.3801828 C337.676301,10.4964887 337.574826,10.5290043 337.375634,10.5290043 C337.19398,10.5290043 337.093758,10.5465127 336.893313,10.580279 C336.446071,10.6628187 336.313276,10.9442039 336.279451,11.5244829 C336.246879,12.0547379 336.246879,12.5187109 336.246879,15.039923 L336.246879,16.8145262 C336.246879,18.6541607 336.063973,20.6126022 334.668376,21.8056758 C333.489509,22.8174122 332.293104,23 331.213208,23 C330.332503,23 328.738967,22.9499759 327.525023,21.8556999 C326.678143,21.0928331 326.046742,19.8659933 326.046742,17.4610871 L326.046742,15.039923 Z M345.010076,11.1593074 L342.534583,11.2255892 C341.571195,11.2593555 341.17281,11.3418951 340.922254,11.7070707 C340.756887,11.9559404 340.674204,12.154786 340.641632,12.2873497 C340.607807,12.4199134 340.557695,12.4861953 340.457473,12.4861953 C340.342217,12.4861953 340.308392,12.4036556 340.308392,12.2210678 C340.308392,11.9559404 340.624093,10.4464646 340.656665,10.3139009 C340.706776,10.0987975 340.756887,10 340.85711,10 C340.989905,10 341.156524,10.1638288 341.571195,10.1988456 C342.053515,10.247619 342.684916,10.2801347 343.232381,10.2801347 L349.81073,10.2801347 C350.341909,10.2801347 350.707721,10.2313612 350.957024,10.1988456 C351.205074,10.1488215 351.339122,10.1150553 351.405519,10.1150553 C351.520775,10.1150553 351.538314,10.2138528 351.538314,10.4639731 C351.538314,10.8116402 351.488203,11.9559404 351.488203,12.3873978 C351.471917,12.5537278 351.438091,12.6525253 351.339122,12.6525253 C351.205074,12.6525253 351.172502,12.568735 351.156216,12.3211159 L351.13993,12.1385281 C351.106105,11.7070707 350.657609,11.2430976 349.179329,11.2093314 L347.085933,11.1593074 L347.085933,17.9588264 C347.085933,19.4845599 347.085933,20.7939394 347.169869,21.5080327 C347.21998,21.9720058 347.31895,22.3371813 347.816304,22.4034632 C348.049321,22.4359788 348.415133,22.4684945 348.664436,22.4684945 C348.847342,22.4684945 348.930025,22.5185185 348.930025,22.6023088 C348.930025,22.7186147 348.798484,22.7686388 348.614325,22.7686388 C347.518142,22.7686388 346.472071,22.7186147 346.006036,22.7186147 C345.623939,22.7186147 344.577867,22.7686388 343.913894,22.7686388 C343.697163,22.7686388 343.580654,22.7186147 343.580654,22.6023088 C343.580654,22.5185185 343.647051,22.4684945 343.846243,22.4684945 C344.096799,22.4684945 344.295991,22.4359788 344.445072,22.4034632 C344.777059,22.3371813 344.877282,21.9720058 344.927393,21.4905243 C345.010076,20.7939394 345.010076,19.4845599 345.010076,17.9588264 L345.010076,11.1593074 Z M356.290109,15.039923 C356.290109,12.5187109 356.290109,12.0547379 356.257537,11.5244829 C356.223712,10.9604618 356.090917,10.6953343 355.542199,10.580279 C355.409405,10.5465127 355.126276,10.5290043 354.894512,10.5290043 C354.711606,10.5290043 354.611384,10.4964887 354.611384,10.3801828 C354.611384,10.2651275 354.727892,10.2313612 354.977196,10.2313612 C355.426944,10.2313612 355.908011,10.247619 356.322681,10.247619 C356.754891,10.2651275 357.136989,10.2801347 357.368753,10.2801347 C357.901185,10.2801347 361.207272,10.2801347 361.522972,10.2651275 C361.838673,10.2313612 362.104262,10.1988456 362.237057,10.1638288 C362.31974,10.1488215 362.419963,10.0987975 362.502646,10.0987975 C362.58533,10.0987975 362.602869,10.1638288 362.602869,10.247619 C362.602869,10.363925 362.520185,10.5627706 362.470074,11.3256373 C362.452535,11.4919673 362.419963,12.2210678 362.386138,12.4199134 C362.368599,12.5024531 362.336026,12.6025012 362.219518,12.6025012 C362.104262,12.6025012 362.070437,12.5187109 362.070437,12.3698894 C362.070437,12.2535835 362.052898,11.9721982 361.971467,11.7733526 C361.853706,11.4744589 361.689592,11.2756133 360.857746,11.1768158 C360.57587,11.1430495 358.830747,11.1092833 358.500013,11.1092833 C358.416077,11.1092833 358.383505,11.1593074 358.383505,11.2756133 L358.383505,15.4713805 C358.383505,15.5864358 358.399791,15.6539683 358.500013,15.6539683 C358.864573,15.6539683 360.775062,15.6539683 361.15716,15.6214526 C361.555544,15.5864358 361.804848,15.5376623 361.953929,15.3713324 C362.070437,15.2387686 362.136834,15.156229 362.219518,15.156229 C362.287168,15.156229 362.336026,15.1899952 362.336026,15.2887927 C362.336026,15.3875902 362.269629,15.6539683 362.204485,16.4993747 C362.186946,16.8320346 362.136834,17.4948533 362.136834,17.6111592 C362.136834,17.7437229 362.136834,17.9250601 361.987754,17.9250601 C361.871245,17.9250601 361.838673,17.8600289 361.838673,17.7762386 C361.821134,17.6111592 361.821134,17.3948052 361.772275,17.1797018 C361.689592,16.8470418 361.456575,16.5994228 360.84146,16.5318903 C360.525759,16.4993747 358.880859,16.4831169 358.482475,16.4831169 C358.399791,16.4831169 358.383505,16.5493987 358.383505,16.6481962 L358.383505,17.9588264 C358.383505,18.5228475 358.365966,20.048581 358.383505,20.5288119 C358.416077,21.6743627 358.681667,21.9219817 360.376678,21.9219817 C360.807635,21.9219817 361.505433,21.9219817 361.937642,21.7231361 C362.368599,21.5230399 362.569044,21.1753728 362.684299,20.4962963 C362.719377,20.3137085 362.75195,20.2474266 362.868458,20.2474266 C363,20.2474266 363,20.3787398 363,20.5450697 C363,20.9277537 362.868458,22.0545455 362.785775,22.3859548 C362.669266,22.8174122 362.520185,22.8174122 361.888784,22.8174122 C360.642268,22.8174122 359.727738,22.783646 359.014906,22.7686388 C358.299569,22.7348725 357.784676,22.7186147 357.286069,22.7186147 C357.103164,22.7186147 356.737352,22.7186147 356.34022,22.7348725 C355.95687,22.7348725 355.525913,22.7686388 355.193927,22.7686388 C354.977196,22.7686388 354.860687,22.7186147 354.860687,22.6023088 C354.860687,22.5185185 354.927084,22.4684945 355.126276,22.4684945 C355.37558,22.4684945 355.576024,22.4359788 355.725105,22.4034632 C356.057092,22.3371813 356.141028,21.9720058 356.206173,21.4905243 C356.290109,20.7939394 356.290109,19.4845599 356.290109,17.9588264 L356.290109,15.039923 Z" id="Fill-1" sketch:type="MSShapeGroup"></path>
            </g>
        </g>
    </g>
</svg>