<?xml version="1.0" encoding="UTF-8" standalone="no"?>
<svg width="181px" height="28px" viewBox="0 0 181 28" version="1.1" xmlns="http://www.w3.org/2000/svg" xmlns:xlink="http://www.w3.org/1999/xlink" xmlns:sketch="http://www.bohemiancoding.com/sketch/ns">
    <!-- Generator: Sketch 3.5.2 (25235) - http://www.bohemiancoding.com/sketch -->
    <title>neptis</title>
    <desc>Created with Sketch.</desc>
    <defs></defs>
    <g id="Page-1" stroke="none" stroke-width="1" fill="none" fill-rule="evenodd" sketch:type="MSPage">
        <g id="neptis" sketch:type="MSLayerGroup" fill="#FFFFFF">
            <path d="M0.58,21.98 C0.58,22.64 1.09,23.15 1.75,23.15 C2.41,23.15 2.89,22.64 2.89,21.98 L2.89,14.12 C2.89,11.21 4.87,9.26 7.54,9.26 C10.27,9.26 11.83,11.06 11.83,13.94 L11.83,21.98 C11.83,22.64 12.34,23.15 13,23.15 C13.63,23.15 14.14,22.64 14.14,21.98 L14.14,13.37 C14.14,9.68 11.95,7.16 8.2,7.16 C5.53,7.16 3.91,8.51 2.89,10.19 L2.89,8.51 C2.89,7.85 2.38,7.34 1.72,7.34 C1.09,7.34 0.58,7.88 0.58,8.51 L0.58,21.98 Z M18.0399999,14.39 C18.3399999,11.36 20.3799999,9.11 23.0799999,9.11 C26.1699999,9.11 27.7899999,11.57 28.0299999,14.39 L18.0399999,14.39 Z M29.2899999,21.02 C29.5299999,20.81 29.6499999,20.54 29.6499999,20.27 C29.6499999,19.73 29.1999999,19.28 28.6299999,19.28 C28.3599999,19.28 28.1499999,19.4 27.9699999,19.55 C26.8299999,20.6 25.4199999,21.35 23.4999999,21.35 C20.7399999,21.35 18.3699999,19.46 18.0399999,16.1 L29.2599999,16.1 C29.8299999,16.1 30.3399999,15.65 30.3399999,15.02 C30.3399999,10.91 27.7299999,7.16 23.1399999,7.16 C18.8499999,7.16 15.6999999,10.76 15.6999999,15.23 L15.6999999,15.29 C15.6999999,20.09 19.1799999,23.36 23.4399999,23.36 C26.0799999,23.36 27.8199999,22.43 29.2899999,21.02 L29.2899999,21.02 Z M32.0199998,26.78 C32.0199998,27.44 32.5299998,27.95 33.1899998,27.95 C33.8499998,27.95 34.3299998,27.44 34.3299998,26.78 L34.3299998,20.03 C35.5299998,21.77 37.3899998,23.33 40.2699998,23.33 C44.0199998,23.33 47.6799998,20.33 47.6799998,15.26 L47.6799998,15.2 C47.6799998,10.1 43.9899998,7.16 40.2699998,7.16 C37.4199998,7.16 35.5899998,8.75 34.3299998,10.61 L34.3299998,8.51 C34.3299998,7.85 33.8199998,7.34 33.1599998,7.34 C32.5299998,7.34 32.0199998,7.85 32.0199998,8.51 L32.0199998,26.78 Z M39.8499998,21.26 C36.9699998,21.26 34.2399998,18.86 34.2399998,15.26 L34.2399998,15.2 C34.2399998,11.66 36.9699998,9.23 39.8499998,9.23 C42.7899998,9.23 45.3099998,11.57 45.3099998,15.23 L45.3099998,15.29 C45.3099998,19.04 42.8499998,21.26 39.8499998,21.26 L39.8499998,21.26 Z M54.7299997,23.27 C55.6299997,23.27 56.3499997,23.12 57.0099997,22.85 C57.3999997,22.7 57.6699997,22.37 57.6699997,21.95 C57.6699997,21.41 57.2199997,20.96 56.6799997,20.96 C56.4999997,20.96 56.0799997,21.17 55.2699997,21.17 C53.7099997,21.17 52.6599997,20.48 52.6599997,18.59 L52.6599997,9.53 L56.6799997,9.53 C57.2499997,9.53 57.7299997,9.08 57.7299997,8.51 C57.7299997,7.97 57.2499997,7.49 56.6799997,7.49 L52.6599997,7.49 L52.6599997,3.83 C52.6599997,3.2 52.1199997,2.66 51.4899997,2.66 C50.8299997,2.66 50.3499997,3.2 50.3499997,3.83 L50.3499997,7.49 L49.0899997,7.49 C48.5499997,7.49 48.0699997,7.94 48.0699997,8.51 C48.0699997,9.05 48.5499997,9.53 49.0899997,9.53 L50.3499997,9.53 L50.3499997,18.89 C50.3499997,22.04 52.2399997,23.27 54.7299997,23.27 L54.7299997,23.27 Z M59.2599996,3.02 C59.2599996,3.74 59.8599996,4.25 60.6099996,4.25 C61.3899996,4.25 61.9899996,3.74 61.9899996,3.02 L61.9899996,2.63 C61.9899996,1.88 61.3899996,1.4 60.6099996,1.4 C59.8599996,1.4 59.2599996,1.88 59.2599996,2.63 L59.2599996,3.02 Z M59.4699996,21.98 C59.4699996,22.64 59.9799996,23.15 60.6399996,23.15 C61.2999996,23.15 61.7799996,22.64 61.7799996,21.98 L61.7799996,8.51 C61.7799996,7.85 61.2699996,7.34 60.6099996,7.34 C59.9799996,7.34 59.4699996,7.88 59.4699996,8.51 L59.4699996,21.98 Z M69.8799995,23.3 C72.9699995,23.3 75.3999995,21.59 75.3999995,18.65 L75.3999995,18.59 C75.3999995,15.8 72.8199995,14.87 70.4199995,14.15 C68.3499995,13.52 66.4299995,12.95 66.4299995,11.48 L66.4299995,11.42 C66.4299995,10.13 67.5999995,9.17 69.4299995,9.17 C70.7499995,9.17 72.1599995,9.62 73.4799995,10.37 C73.5999995,10.43 73.7799995,10.49 73.9899995,10.49 C74.5599995,10.49 75.0099995,10.04 75.0099995,9.5 C75.0099995,9.05 74.7399995,8.72 74.4399995,8.54 C72.9399995,7.73 71.1399995,7.22 69.4899995,7.22 C66.4299995,7.22 64.2099995,8.99 64.2099995,11.66 L64.2099995,11.72 C64.2099995,14.57 66.9099995,15.41 69.3399995,16.1 C71.3799995,16.67 73.2099995,17.27 73.2099995,18.83 L73.2099995,18.89 C73.2099995,20.39 71.8599995,21.35 69.9999995,21.35 C68.3199995,21.35 66.6699995,20.78 65.0799995,19.7 C64.9299995,19.58 64.7199995,19.52 64.5099995,19.52 C63.9399995,19.52 63.4899995,19.97 63.4899995,20.51 C63.4899995,20.9 63.6999995,21.2 63.9099995,21.35 C65.5899995,22.55 67.8399995,23.3 69.8799995,23.3 L69.8799995,23.3 Z" id="A" sketch:type="MSShapeGroup"></path>
            <path d="M84.6300006,27.86 C87.0900006,27.86 89.1600006,27.17 90.5400006,25.79 C91.8000006,24.53 92.5200006,22.7 92.5200006,20.3 L92.5200006,8.51 C92.5200006,7.88 92.0100006,7.34 91.3500006,7.34 C90.6900006,7.34 90.2100006,7.88 90.2100006,8.51 L90.2100006,10.28 C88.9500006,8.6 87.0600006,7.16 84.1500006,7.16 C80.4600006,7.16 76.8600006,9.95 76.8600006,14.48 L76.8600006,14.54 C76.8600006,19.01 80.4300006,21.8 84.1500006,21.8 C87.0000006,21.8 88.8900006,20.33 90.2400006,18.53 L90.2400006,20.36 C90.2400006,23.99 88.0200006,25.88 84.6000006,25.88 C82.5900006,25.88 80.7300006,25.28 79.1100006,24.2 C78.9600006,24.11 78.8100006,24.05 78.6000006,24.05 C78.0600006,24.05 77.5500006,24.56 77.5500006,25.07 C77.5500006,25.49 77.7900006,25.85 78.1500006,26.03 C80.1000006,27.23 82.2600006,27.86 84.6300006,27.86 L84.6300006,27.86 Z M84.6000006,19.76 C81.7200006,19.76 79.2300006,17.6 79.2300006,14.48 L79.2300006,14.42 C79.2300006,11.24 81.6600006,9.2 84.6000006,9.2 C87.5400006,9.2 90.3000006,11.27 90.3000006,14.45 L90.3000006,14.51 C90.3000006,17.63 87.5400006,19.76 84.6000006,19.76 L84.6000006,19.76 Z M96.6600005,14.39 C96.9600005,11.36 99.0000005,9.11 101.7,9.11 C104.79,9.11 106.41,11.57 106.65,14.39 L96.6600005,14.39 Z M107.91,21.02 C108.15,20.81 108.27,20.54 108.27,20.27 C108.27,19.73 107.82,19.28 107.25,19.28 C106.98,19.28 106.77,19.4 106.59,19.55 C105.45,20.6 104.04,21.35 102.12,21.35 C99.3600005,21.35 96.9900005,19.46 96.6600005,16.1 L107.88,16.1 C108.45,16.1 108.96,15.65 108.96,15.02 C108.96,10.91 106.35,7.16 101.76,7.16 C97.4700005,7.16 94.3200005,10.76 94.3200005,15.23 L94.3200005,15.29 C94.3200005,20.09 97.8000005,23.36 102.06,23.36 C104.7,23.36 106.44,22.43 107.91,21.02 L107.91,21.02 Z M117.72,23.36 C122.4,23.36 125.85,19.64 125.85,15.26 L125.85,15.2 C125.85,10.82 122.43,7.16 117.78,7.16 C113.1,7.16 109.68,10.88 109.68,15.26 L109.68,15.32 C109.68,19.7 113.07,23.36 117.72,23.36 L117.72,23.36 Z M117.78,21.29 C114.51,21.29 112.05,18.59 112.05,15.26 L112.05,15.2 C112.05,11.93 114.36,9.2 117.72,9.2 C120.99,9.2 123.48,11.93 123.48,15.26 L123.48,15.32 C123.48,18.59 121.14,21.29 117.78,21.29 L117.78,21.29 Z M132.06,23.24 L132.12,23.24 C132.72,23.24 133.17,22.88 133.38,22.19 L137.28,10.88 L141.15,22.19 C141.36,22.88 141.81,23.24 142.41,23.24 L142.5,23.24 C143.04,23.24 143.52,22.88 143.76,22.19 L148.5,9.05 C148.56,8.87 148.65,8.63 148.65,8.42 C148.65,7.85 148.17,7.34 147.51,7.34 C146.88,7.34 146.55,7.76 146.4,8.24 L142.44,19.94 L138.54,8.27 C138.36,7.73 137.97,7.34 137.34,7.34 L137.22,7.34 C136.62,7.34 136.26,7.73 136.08,8.27 L132.15,19.94 L128.25,8.3 C128.07,7.73 127.68,7.34 127.08,7.34 C126.39,7.34 125.91,7.88 125.91,8.45 C125.91,8.66 126,8.9 126.06,9.08 L130.77,22.19 C131.01,22.88 131.49,23.24 132.06,23.24 L132.06,23.24 Z M151.08,14.39 C151.38,11.36 153.42,9.11 156.12,9.11 C159.21,9.11 160.83,11.57 161.07,14.39 L151.08,14.39 Z M162.33,21.02 C162.57,20.81 162.69,20.54 162.69,20.27 C162.69,19.73 162.24,19.28 161.67,19.28 C161.4,19.28 161.19,19.4 161.01,19.55 C159.87,20.6 158.46,21.35 156.54,21.35 C153.78,21.35 151.41,19.46 151.08,16.1 L162.3,16.1 C162.87,16.1 163.38,15.65 163.38,15.02 C163.38,10.91 160.77,7.16 156.18,7.16 C151.89,7.16 148.74,10.76 148.74,15.23 L148.74,15.29 C148.74,20.09 152.22,23.36 156.48,23.36 C159.12,23.36 160.86,22.43 162.33,21.02 L162.33,21.02 Z M165.06,21.98 C165.06,22.61 165.57,23.15 166.23,23.15 C166.89,23.15 167.37,22.61 167.37,21.98 L167.37,20.03 C168.57,21.77 170.43,23.33 173.31,23.33 C177.06,23.33 180.72,20.33 180.72,15.26 L180.72,15.2 C180.72,10.1 177.03,7.16 173.31,7.16 C170.46,7.16 168.63,8.75 167.37,10.61 L167.37,2.12 C167.37,1.46 166.86,0.95 166.2,0.95 C165.57,0.95 165.06,1.46 165.06,2.12 L165.06,21.98 Z M172.89,21.26 C170.01,21.26 167.28,18.86 167.28,15.26 L167.28,15.2 C167.28,11.66 170.01,9.23 172.89,9.23 C175.83,9.23 178.35,11.57 178.35,15.23 L178.35,15.29 C178.35,19.04 175.89,21.26 172.89,21.26 L172.89,21.26 Z" id="A" sketch:type="MSShapeGroup"></path>
        </g>
    </g>
</svg>